<svg width="25" height="25" viewBox="0 0 25 25" fill="none" xmlns="http://www.w3.org/2000/svg">
<path d="M6.59375 0C4.96494 0 3.66406 1.36748 3.66406 2.97852C3.66406 4.59395 4.97832 5.9082 6.59375 5.9082C8.20918 5.9082 9.52344 4.59395 9.52344 2.97852C9.52344 1.36621 8.2209 0 6.59375 0ZM6.59375 4.44336C5.78604 4.44336 5.12891 3.78623 5.12891 2.97852C5.12891 2.15801 5.79971 1.46484 6.59375 1.46484C7.38779 1.46484 8.05859 2.15801 8.05859 2.97852C8.05859 3.78623 7.40147 4.44336 6.59375 4.44336Z" fill="black"/>
<path d="M22.8027 0H12.4512C11.2396 0 10.2539 0.985693 10.2539 2.19727V7.19556L9.6102 6.5519C9.19517 6.13682 8.64341 5.9082 8.05664 5.9082H6.5918C6.2813 5.9082 3.97261 5.9082 3.66211 5.9082C1.64282 5.9082 0 7.55103 0 9.57031C0 9.98677 0 13.3633 0 13.9648C0 15.1764 0.985693 16.1621 2.19727 16.1621C2.45396 16.1621 2.70054 16.1179 2.92969 16.0366V22.8027C2.92969 24.0143 3.91538 25 5.12695 25C5.68921 25 6.20278 24.7877 6.5918 24.4392C6.98081 24.7877 7.49438 25 8.05664 25C9.26821 25 10.2539 24.0143 10.2539 22.8027V13.1076C10.8139 13.3051 11.4343 13.2671 11.969 13.0006L14.4351 11.7676H22.8027C24.0143 11.7676 25 10.7819 25 9.57031V2.19727C25 0.985693 24.0143 0 22.8027 0ZM14.2436 10.2255L11.3148 11.6899C11.04 11.8269 10.6988 11.7832 10.4685 11.5529L10.0395 11.1239C9.58652 10.6709 8.79107 10.979 8.78911 11.6395C8.78911 11.6402 8.78901 11.6409 8.78901 11.6417V22.8027C8.78901 23.2066 8.46045 23.5352 8.05659 23.5352C7.65273 23.5352 7.32417 23.2066 7.32417 22.8027V15.4297C7.32417 15.0252 6.99624 14.6973 6.59175 14.6973C6.18726 14.6973 5.85933 15.0252 5.85933 15.4297V22.8027C5.85933 23.2066 5.53076 23.5352 5.1269 23.5352C4.72305 23.5352 4.39448 23.2066 4.39448 22.8027V13.9648C4.39448 13.4126 4.39448 10.0217 4.39448 9.57031C4.39448 9.16582 4.06655 8.83789 3.66206 8.83789C3.25757 8.83789 2.92964 9.16582 2.92964 9.57031C2.92964 9.98677 2.92964 13.3633 2.92964 13.9648C2.92964 14.3687 2.60107 14.6973 2.19722 14.6973C1.79336 14.6973 1.46479 14.3687 1.46479 13.9648C1.46484 13.4126 1.46484 10.0217 1.46484 9.57031C1.46484 8.35874 2.45054 7.37305 3.66211 7.37305C4.21436 7.37305 7.60527 7.37305 8.05664 7.37305C8.25215 7.37305 8.43604 7.44927 8.57441 7.5877L10.7574 9.77065C10.9802 9.99355 11.3208 10.0488 11.6028 9.90786L13.5886 8.91494C13.9521 8.73306 14.3901 8.88008 14.5712 9.24268C14.7523 9.60503 14.606 10.0444 14.2436 10.2255ZM23.5352 9.57031C23.5352 9.97417 23.2066 10.3027 22.8027 10.3027H15.9873C15.9917 10.2902 15.9966 10.2779 16.0008 10.2652C16.1063 9.94883 16.1379 9.61982 16.0976 9.29844L20.1029 7.29575C20.4647 7.11484 20.6114 6.6749 20.4305 6.31309C20.2496 5.95127 19.8096 5.80459 19.4478 5.98555L15.4427 7.98813C14.801 7.36743 13.8014 7.17041 12.9333 7.60488L11.7188 8.21216V2.19727C11.7188 1.79341 12.0473 1.46484 12.4512 1.46484H22.8027C23.2066 1.46484 23.5352 1.79341 23.5352 2.19727V9.57031Z" fill="black"/>
</svg>
