<svg width="25" height="25" viewBox="0 0 25 25" fill="none" xmlns="http://www.w3.org/2000/svg">
<g clip-path="url(#clip0)">
<path d="M24.8431 9.39798L24.1919 8.27004C24.0571 8.03655 23.7587 7.95652 23.525 8.09133C23.2914 8.22614 23.2114 8.52477 23.3463 8.7583L23.9975 9.88625C24.0318 9.94572 24.0242 10.0024 24.0165 10.0308C24.0089 10.0593 23.9872 10.1122 23.9277 10.1465L22.2057 11.1407C22.1146 11.1932 21.9979 11.1619 21.9454 11.071L18.4811 5.07087C18.4286 4.97986 18.4599 4.86306 18.5509 4.81048L20.2729 3.81632C20.3639 3.76388 20.4808 3.79503 20.5333 3.88604L21.1491 4.95266C21.2839 5.18625 21.5825 5.26627 21.816 5.13137C22.0496 4.99656 22.1296 4.69793 21.9947 4.46439L21.3789 3.39778C21.0572 2.84052 20.3421 2.64878 19.7846 2.97059L18.0626 3.9648C17.801 4.11587 17.62 4.35361 17.5348 4.62098H12.6531C11.9678 4.62098 11.3234 4.88787 10.8387 5.37252L10.3385 5.8727C9.89994 5.76816 9.45064 5.7144 8.9988 5.7144H7.48303C7.4073 5.42188 7.21917 5.15861 6.93744 4.99592L5.21542 4.00171C4.94541 3.84581 4.63077 3.80445 4.32976 3.88512C4.02864 3.96578 3.77694 4.15894 3.62109 4.4289L0.156889 10.4291C0.00103448 10.699 -0.0404193 11.0136 0.0402422 11.3147C0.120904 11.6159 0.314062 11.8675 0.584073 12.0234L2.30609 13.0176C2.48943 13.1235 2.68977 13.1737 2.88766 13.1737C2.95978 13.1737 3.03151 13.1668 3.10201 13.1537L4.51144 14.5632C4.48986 14.6739 4.47868 14.7876 4.47868 14.903C4.47868 15.3722 4.66139 15.8133 4.99316 16.145C5.31083 16.4627 5.72088 16.6327 6.13761 16.6557C6.13121 16.7169 6.12775 16.7788 6.12775 16.8412C6.12775 17.3104 6.31046 17.7515 6.64223 18.0832C6.97401 18.415 7.41511 18.5977 7.88428 18.5977C7.89703 18.5977 7.90963 18.5971 7.92232 18.5968C7.92203 18.6095 7.92139 18.6221 7.92139 18.6348C7.92139 19.104 8.1041 19.5451 8.43588 19.8769C8.76766 20.2086 9.20876 20.3913 9.67793 20.3913C9.69067 20.3913 9.70327 20.3907 9.71597 20.3904C9.71567 20.4031 9.71504 20.4157 9.71504 20.4284C9.71504 20.8976 9.89775 21.3388 10.2295 21.6705C10.5613 22.0022 11.0024 22.185 11.4716 22.185C11.9408 22.185 12.3819 22.0023 12.7136 21.6705L13.4082 20.9759C13.6119 20.7723 13.7545 20.5305 13.837 20.2735C14.1456 20.5012 14.5123 20.6151 14.8791 20.6151C15.3289 20.615 15.7788 20.4438 16.1212 20.1014C16.3261 19.8965 16.4739 19.6499 16.5572 19.3808C16.8398 19.5656 17.17 19.665 17.5156 19.665C17.9848 19.665 18.4259 19.4823 18.7576 19.1506C19.0042 18.904 19.1682 18.5971 19.2363 18.2631C19.4127 18.3215 19.599 18.3523 19.7902 18.3523C20.2593 18.3523 20.7005 18.1696 21.0323 17.8378C21.7171 17.1529 21.7171 16.0385 21.0323 15.3536L19.8927 14.214L21.9728 12.1338C22.019 12.1394 22.0655 12.1425 22.1123 12.1425C22.3102 12.1425 22.5105 12.0922 22.6938 11.9864L24.4158 10.9922C24.6858 10.8363 24.879 10.5847 24.9597 10.2835C25.0404 9.98234 24.999 9.66794 24.8431 9.39798ZM1.07229 11.1777C1.01282 11.1434 0.99114 11.0905 0.983523 11.062C0.975906 11.0335 0.968241 10.9769 1.00261 10.9174L4.46681 4.91716C4.50114 4.85769 4.55407 4.83601 4.58253 4.8284C4.59469 4.82517 4.61197 4.8219 4.63238 4.8219C4.65987 4.8219 4.69303 4.82781 4.72711 4.84744L6.44912 5.84165C6.54009 5.89418 6.57143 6.01098 6.5189 6.10199L3.0547 12.1021C3.00211 12.1931 2.88542 12.2245 2.79436 12.1719L1.07229 11.1777ZM5.45521 14.9029C5.45521 14.6945 5.53636 14.4987 5.68372 14.3513L6.10509 13.93C6.25714 13.7779 6.45689 13.7018 6.65669 13.7018C6.85639 13.7018 7.05619 13.7779 7.20823 13.93C7.35559 14.0773 7.43674 14.2732 7.43674 14.4815C7.43674 14.6899 7.35559 14.8857 7.20823 15.0331L6.78686 15.4544C6.48272 15.7586 5.98786 15.7586 5.68372 15.4544C5.53636 15.3072 5.45521 15.1113 5.45521 14.9029ZM7.88433 17.6212C7.67594 17.6212 7.4801 17.54 7.33279 17.3927C7.18543 17.2454 7.10428 17.0495 7.10428 16.8412C7.10428 16.6328 7.18543 16.4369 7.33279 16.2896L8.02735 15.5951C8.17939 15.443 8.37914 15.367 8.57889 15.367C8.77869 15.367 8.97844 15.443 9.13049 15.5951C9.27784 15.7424 9.35899 15.9383 9.35899 16.1466C9.35899 16.3549 9.27784 16.5508 9.13049 16.6981L8.43593 17.3927C8.28857 17.5401 8.09268 17.6212 7.88433 17.6212ZM9.67798 19.4149C9.46959 19.4149 9.27374 19.3337 9.12643 19.1864C8.97907 19.0391 8.89792 18.8432 8.89792 18.6349C8.89792 18.4265 8.97907 18.2306 9.12643 18.0833L9.82099 17.3887C9.97304 17.2367 10.1728 17.1606 10.3725 17.1606C10.5723 17.1606 10.7721 17.2367 10.9241 17.3887C11.0715 17.5361 11.1526 17.7319 11.1526 17.9403C11.1526 18.1486 11.0715 18.3445 10.9241 18.4918L10.2296 19.1864C10.0823 19.3337 9.88637 19.4149 9.67798 19.4149ZM12.7178 20.2855L12.0232 20.9801C11.8759 21.1274 11.68 21.2085 11.4716 21.2085C11.2632 21.2085 11.0674 21.1274 10.9201 20.9801C10.7727 20.8327 10.6916 20.6369 10.6916 20.4285C10.6916 20.2202 10.7727 20.0243 10.9201 19.8769L11.6146 19.1824C11.7667 19.0303 11.9664 18.9543 12.1662 18.9543C12.3659 18.9543 12.5657 19.0303 12.7178 19.1823C13.0219 19.4864 13.0219 19.9813 12.7178 20.2855ZM20.3419 17.1473C20.1945 17.2947 19.9987 17.3759 19.7903 17.3759C19.5819 17.3759 19.3861 17.2947 19.2387 17.1473L14.5782 12.4868C14.3875 12.2962 14.0785 12.2962 13.8877 12.4868C13.697 12.6775 13.697 12.9867 13.8877 13.1774L18.0672 17.357C18.2146 17.5043 18.2957 17.7002 18.2957 17.9085C18.2957 18.1168 18.2146 18.3127 18.0672 18.4601C17.9199 18.6074 17.7241 18.6886 17.5157 18.6886C17.3073 18.6886 17.1114 18.6074 16.9641 18.4601L11.9418 13.4377C11.7511 13.2471 11.4419 13.2471 11.2512 13.4377C11.0606 13.6284 11.0606 13.9376 11.2512 14.1283L15.4308 18.3079C15.5781 18.4552 15.6593 18.6511 15.6593 18.8594C15.6593 19.0677 15.5781 19.2636 15.4308 19.4109C15.1267 19.7151 14.6318 19.7152 14.3276 19.4109L13.4084 18.4917C13.4072 18.4905 13.4057 18.4894 13.4045 18.4882C13.0528 18.1386 12.589 17.9692 12.1282 17.9792C12.1285 17.9662 12.1292 17.9533 12.1292 17.9403C12.1292 17.4711 11.9465 17.03 11.6147 16.6982C11.2626 16.3461 10.797 16.1756 10.3345 16.1855C10.3348 16.1725 10.3355 16.1596 10.3355 16.1466C10.3355 15.6774 10.1528 15.2363 9.82099 14.9045C9.43594 14.5195 8.91511 14.351 8.41122 14.3989C8.39106 13.9608 8.21093 13.5517 7.89874 13.2395C7.21385 12.5546 6.09943 12.5548 5.41454 13.2395L4.99316 13.6609C4.99268 13.6614 4.99219 13.6619 4.9917 13.6624L3.90746 12.5782L7.30642 6.69094H8.99875C9.16457 6.69094 9.32994 6.69973 9.49439 6.71681L8.93625 7.27495C8.60448 7.60673 8.42177 8.04788 8.42177 8.51705C8.42177 8.98627 8.60448 9.42737 8.93625 9.75915C9.27872 10.1016 9.72856 10.2728 10.1783 10.2728C10.6281 10.2728 11.078 10.1016 11.4204 9.75915L12.7385 8.44103L20.3418 16.0443C20.6459 16.3483 20.6459 16.8433 20.3419 17.1473ZM15.6507 9.97204C16.3612 9.45779 16.7968 8.62794 16.7968 7.72635C16.7968 7.45668 16.5781 7.23809 16.3085 7.23809C16.0389 7.23809 15.8202 7.45668 15.8202 7.72635C15.8202 8.36418 15.4833 8.94594 14.9458 9.26717L13.0861 7.40747C12.8954 7.2168 12.5867 7.21182 12.396 7.40249L10.7299 9.0686C10.4258 9.37274 9.9309 9.37269 9.62676 9.0686C9.4794 8.92129 9.39825 8.72539 9.39825 8.51705C9.39825 8.30871 9.4794 8.11282 9.62676 7.96546L11.5292 6.06303C11.8294 5.76284 12.2285 5.59751 12.6531 5.59751H17.6576L21.0996 11.5593C21.1078 11.5735 21.1167 11.5869 21.1253 11.6005L19.2022 13.5236L15.6507 9.97204Z" fill="black"/>
<path d="M22.6719 7.09961C22.8003 7.09961 22.9258 7.04736 23.0171 6.95654C23.1079 6.86523 23.1602 6.73975 23.1602 6.61133C23.1602 6.48242 23.1079 6.35693 23.0171 6.26562C22.9258 6.1748 22.8003 6.12305 22.6719 6.12305C22.543 6.12305 22.4175 6.1748 22.3267 6.26562C22.2354 6.35693 22.1836 6.48242 22.1836 6.61133C22.1836 6.73975 22.2354 6.86523 22.3267 6.95654C22.4175 7.04741 22.543 7.09961 22.6719 7.09961Z" fill="black"/>
</g>
<defs>
<clipPath id="clip0">
<rect width="25" height="25" fill="white"/>
</clipPath>
</defs>
</svg>
