<svg width="21" height="21" viewBox="0 0 21 21" fill="none" xmlns="http://www.w3.org/2000/svg">
<path d="M3.07617 21H17.9238C19.62 21 21 19.62 21 17.9238C21 17.5841 20.7245 17.3086 20.3848 17.3086H19.7695V6.84961C19.7695 6.50984 19.4941 6.23438 19.1543 6.23438H13.9731L11.0512 0.341906C10.9474 0.13248 10.7338 0 10.5 0C10.2662 0 10.0526 0.13248 9.94883 0.341906L7.02692 6.23438H1.8457C1.50593 6.23438 1.23047 6.50984 1.23047 6.84961V17.3086H0.615234C0.275461 17.3086 0 17.5841 0 17.9238C0 19.62 1.37997 21 3.07617 21ZM17.9238 19.7695H3.07617C2.27407 19.7695 1.58981 19.2552 1.33588 18.5387H19.6641C19.4102 19.2552 18.7259 19.7695 17.9238 19.7695ZM10.5 2.00013C10.597 2.19725 14.1809 9.42342 14.279 9.62116L11.1152 8.83017V6.84961C11.1152 6.50984 10.8398 6.23438 10.5 6.23438C10.1602 6.23438 9.88477 6.50984 9.88477 6.84961V8.83017L6.72098 9.62112C7.0311 8.99571 10.0917 2.82979 10.5 2.00013ZM2.46094 7.46484H6.41677L5.02692 10.2677C4.92032 10.4826 4.94841 10.7399 5.09882 10.9268C5.24922 11.1137 5.49458 11.196 5.7273 11.1379L9.88477 10.0985V11.7715C9.88477 12.7892 10.7127 13.6172 11.7305 13.6172H14.1914C14.5306 13.6172 14.8066 13.8932 14.8066 14.2324C14.8066 14.5717 14.5306 14.8477 14.1914 14.8477H5.57812C5.23835 14.8477 4.96289 15.1231 4.96289 15.4629C4.96289 15.8027 5.23835 16.0781 5.57812 16.0781H14.1914C15.2091 16.0781 16.0371 15.2501 16.0371 14.2324C16.0371 13.2147 15.2091 12.3867 14.1914 12.3867H11.7305C11.3912 12.3867 11.1152 12.1107 11.1152 11.7715V10.0985L15.2727 11.1379C15.5083 11.1968 15.7526 11.1113 15.9011 10.9268C16.0515 10.7399 16.0796 10.4826 15.973 10.2677L14.5832 7.46484H18.5391V17.3086H2.46094V7.46484Z" fill="black"/>
</svg>
