<svg width="29" height="29" viewBox="0 0 29 29" fill="none" xmlns="http://www.w3.org/2000/svg">
<path d="M29 19.8236C29 18.7175 28.2876 17.7832 27.3008 17.4313V8.6297L29 7.92911L14.5 2.11133L0 7.92911L14.5 13.747L25.6016 9.31199V17.4313C24.6148 17.7832 23.9023 18.7175 23.9023 19.8236C23.9023 20.8364 24.5005 21.7057 25.3581 22.1165L23.9464 26.3517L25.5576 26.8893L26.4512 24.2086L27.3447 26.8893L28.956 26.3517L27.5443 22.1165C28.4019 21.7058 29 20.8364 29 19.8236Z" fill="black"/>
<path d="M14.502 15.5762L6.85547 12.5059V14.7241C6.85547 17.146 10.1427 18.9722 14.502 18.9722C18.8612 18.9722 22.1484 17.146 22.1484 14.7241V12.5059L14.502 15.5762Z" fill="black"/>
</svg>
