<svg width="21" height="21" viewBox="0 0 21 21" fill="none" xmlns="http://www.w3.org/2000/svg">
<g clip-path="url(#clip0)">
<path d="M6.36433 20.5866C6.36433 20.8144 6.17872 21 5.95094 21C5.72317 21 5.53755 20.8144 5.53755 20.5866C5.53755 20.3588 5.72317 20.1732 5.95094 20.1732C6.17872 20.1732 6.36433 20.3588 6.36433 20.5866ZM18.7659 0.413386L18.7649 17.4449C18.7649 17.5524 18.7239 17.6581 18.6448 17.7372L15.5031 20.8789C15.424 20.958 15.3183 21 15.2108 21H7.81118C7.58295 21 7.39779 20.8144 7.39779 20.5866C7.39779 20.3588 7.58295 20.1732 7.81118 20.1732H14.7974V17.4449C14.7974 17.2166 14.9825 17.0315 15.2108 17.0315H17.9391V0.826772H3.05724V20.1732H4.0907C4.31848 20.1732 4.50409 20.3588 4.50409 20.5866C4.50409 20.8144 4.31848 21 4.0907 21H2.64385C2.41558 21 2.23047 20.8149 2.23047 20.5866V0.413386C2.23047 0.185114 2.41558 0 2.64385 0H18.3525C18.5808 0 18.7659 0.185114 18.7659 0.413386ZM17.3545 17.8583H15.6242V19.5886L17.3545 17.8583ZM12.5651 6.94488H9.25803C9.02976 6.94488 8.84464 7.13 8.84464 7.35827C8.84464 7.58654 9.02976 7.77165 9.25803 7.77165H12.5651C12.7934 7.77165 12.9785 7.58654 12.9785 7.35827C12.9785 7.13 12.7934 6.94488 12.5651 6.94488ZM9.25803 9.4252H11.7383C11.9666 9.4252 12.1517 9.24008 12.1517 9.01181C12.1517 8.78354 11.9666 8.59842 11.7383 8.59842H9.25803C9.02976 8.59842 8.84464 8.78354 8.84464 9.01181C8.84464 9.24008 9.02976 9.4252 9.25803 9.4252ZM9.25803 12.7323H10.9116C11.1398 12.7323 11.325 12.5472 11.325 12.3189C11.325 12.0906 11.1398 11.9055 10.9116 11.9055H9.25803C9.02976 11.9055 8.84464 12.0906 8.84464 12.3189C8.84464 12.5472 9.02976 12.7323 9.25803 12.7323ZM12.9785 13.9724C12.9785 13.7442 12.7934 13.5591 12.5651 13.5591H9.25803C9.02976 13.5591 8.84464 13.7442 8.84464 13.9724C8.84464 14.2007 9.02976 14.3858 9.25803 14.3858H12.5651C12.7934 14.3858 12.9785 14.2007 12.9785 13.9724ZM4.92074 7.22106C4.78825 7.02376 4.71078 6.78651 4.71078 6.5315C4.71078 5.84767 5.26712 5.29134 5.95094 5.29134C6.63476 5.29134 7.1911 5.84767 7.1911 6.5315C7.1911 6.78651 7.11363 7.02376 6.98114 7.22106C7.6001 7.57856 8.01787 8.24709 8.01787 9.01181C8.01787 9.24008 7.83276 9.4252 7.60448 9.4252H4.2974C4.06913 9.4252 3.88401 9.24008 3.88401 9.01181C3.88401 8.24709 4.30178 7.57856 4.92074 7.22106ZM5.53755 6.5315C5.53755 6.75944 5.723 6.94488 5.95094 6.94488C6.17888 6.94488 6.36433 6.75944 6.36433 6.5315C6.36433 6.30356 6.17888 6.11811 5.95094 6.11811C5.723 6.11811 5.53755 6.30356 5.53755 6.5315ZM4.78164 8.59842H7.12024C6.94964 8.1172 6.48987 7.77165 5.95094 7.77165C5.41201 7.77165 4.95224 8.1172 4.78164 8.59842ZM3.88401 13.9724C3.88401 13.2077 4.30178 12.5392 4.92074 12.1817C4.78825 11.9844 4.71078 11.7471 4.71078 11.4921C4.71078 10.8083 5.26712 10.252 5.95094 10.252C6.63476 10.252 7.1911 10.8083 7.1911 11.4921C7.1911 11.7471 7.11363 11.9844 6.98114 12.1817C7.6001 12.5392 8.01787 13.2077 8.01787 13.9724C8.01787 14.2007 7.83276 14.3858 7.60448 14.3858H4.2974C4.06913 14.3858 3.88401 14.2007 3.88401 13.9724ZM5.53755 11.4921C5.53755 11.7201 5.723 11.9055 5.95094 11.9055C6.17888 11.9055 6.36433 11.7201 6.36433 11.4921C6.36433 11.2642 6.17888 11.0787 5.95094 11.0787C5.723 11.0787 5.53755 11.2642 5.53755 11.4921ZM4.78164 13.5591H7.12024C6.94964 13.0778 6.48987 12.7323 5.95094 12.7323C5.41201 12.7323 4.95224 13.0778 4.78164 13.5591ZM3.88401 18.9331C3.88401 18.1683 4.30178 17.4998 4.92074 17.1423C4.78825 16.945 4.71078 16.7078 4.71078 16.4528C4.71078 15.7689 5.26712 15.2126 5.95094 15.2126C6.63476 15.2126 7.1911 15.7689 7.1911 16.4528C7.1911 16.7078 7.11363 16.945 6.98114 17.1423C7.6001 17.4998 8.01787 18.1683 8.01787 18.9331C8.01787 19.1613 7.83276 19.3465 7.60448 19.3465H4.2974C4.06913 19.3465 3.88401 19.1613 3.88401 18.9331ZM5.53755 16.4528C5.53755 16.6807 5.723 16.8661 5.95094 16.8661C6.17888 16.8661 6.36433 16.6807 6.36433 16.4528C6.36433 16.2248 6.17888 16.0394 5.95094 16.0394C5.723 16.0394 5.53755 16.2248 5.53755 16.4528ZM4.78164 18.5197H7.12024C6.94964 18.0385 6.48987 17.6929 5.95094 17.6929C5.41201 17.6929 4.95224 18.0385 4.78164 18.5197ZM9.25803 18.5197C9.02976 18.5197 8.84464 18.7048 8.84464 18.9331C8.84464 19.1613 9.02976 19.3465 9.25803 19.3465H10.9116C11.1398 19.3465 11.325 19.1613 11.325 18.9331C11.325 18.7048 11.1398 18.5197 10.9116 18.5197H9.25803ZM12.1517 17.2795C12.1517 17.0513 11.9666 16.8661 11.7383 16.8661H9.25803C9.02976 16.8661 8.84464 17.0513 8.84464 17.2795C8.84464 17.5078 9.02976 17.6929 9.25803 17.6929H11.7383C11.9666 17.6929 12.1517 17.5078 12.1517 17.2795ZM14.632 2.06693V3.72047C14.632 3.94874 14.4469 4.13386 14.2187 4.13386H6.77771C6.54944 4.13386 6.36433 3.94874 6.36433 3.72047V2.06693C6.36433 1.83866 6.54944 1.65354 6.77771 1.65354H14.2187C14.4469 1.65354 14.632 1.83866 14.632 2.06693ZM13.8053 2.48031H7.1911V3.30709H13.8053V2.48031ZM16.4067 11.3922L15.1416 12.6573L14.511 12.0266C14.3495 11.8652 14.0878 11.8652 13.9263 12.0266C13.7649 12.188 13.7649 12.4498 13.9263 12.6112L14.8493 13.5342C15.0031 13.688 15.2665 13.7015 15.4339 13.5342L16.9913 11.9768C17.1527 11.8154 17.1527 11.5536 16.9913 11.3922C16.8298 11.2308 16.5681 11.2308 16.4067 11.3922ZM16.9913 6.43154C16.8298 6.27015 16.5681 6.27015 16.4066 6.43154L15.1416 7.69662L14.5109 7.06596C14.3495 6.90458 14.0878 6.90458 13.9263 7.06596C13.7648 7.22739 13.7648 7.48915 13.9263 7.65061L14.8492 8.57358C15.0031 8.7274 15.2665 8.74092 15.4339 8.57358L16.9912 7.01619C17.1527 6.85472 17.1527 6.59297 16.9913 6.43154Z" fill="black"/>
</g>
<defs>
<clipPath id="clip0">
<rect width="21" height="21" fill="white"/>
</clipPath>
</defs>
</svg>
