<svg width="25" height="25" viewBox="0 0 25 25" fill="none" xmlns="http://www.w3.org/2000/svg">
<path d="M24.5968 22.5806H24.1935V8.46774C24.1935 8.24467 24.0134 8.06452 23.7903 8.06452H23.3871V4.43548C23.3871 4.21241 23.2069 4.03226 22.9839 4.03226H22.4503L20.9392 0.253591C20.8774 0.100413 20.7295 0 20.5645 0C20.3995 0 20.2517 0.100413 20.1898 0.253591L18.6787 4.03226H18.1452C17.9221 4.03226 17.7419 4.21241 17.7419 4.43548V8.06452H17.3387C17.1156 8.06452 16.9355 8.24467 16.9355 8.46774V10.9403L12.9032 8.25195V6.45161H15.7258C15.8747 6.45161 16.0113 6.36971 16.0814 6.23878C16.1517 6.10765 16.1436 5.94837 16.0613 5.82492L15.4041 4.83871L16.0613 3.85289C16.1436 3.72905 16.1517 3.57016 16.0814 3.43904C16.0113 3.30811 15.8747 3.22581 15.7258 3.22581H12.9032V2.41935H12.0968V8.25195L8.06452 10.9403V8.46774C8.06452 8.24467 7.88436 8.06452 7.66129 8.06452H7.25806V4.43548C7.25806 4.21241 7.07791 4.03226 6.85484 4.03226H6.32127L4.81016 0.253591C4.74834 0.100413 4.60048 0 4.43548 0C4.27049 0 4.12263 0.100413 4.06081 0.253591L2.54969 4.03226H2.01613C1.79306 4.03226 1.6129 4.21241 1.6129 4.43548V8.06452H1.20968C0.986604 8.06452 0.806452 8.24467 0.806452 8.46774V22.5806H0.403226C0.180152 22.5806 0 22.7608 0 22.9839V24.5968C0 24.8198 0.180152 25 0.403226 25H24.5968C24.8198 25 25 24.8198 25 24.5968V22.9839C25 22.7608 24.8198 22.5806 24.5968 22.5806ZM22.5806 8.06452H21.7742V4.83871H22.5806V8.06452ZM20.1613 5.64516H20.9677V8.06452H20.1613V5.64516ZM20.5645 1.48867L21.5818 4.03226H21.371C21.1479 4.03226 20.9677 4.21241 20.9677 4.43548V4.83871H20.1613V4.43548C20.1613 4.21241 19.9811 4.03226 19.7581 4.03226H19.5472L20.5645 1.48867ZM18.5484 4.83871H19.3548V8.06452H18.5484V4.83871ZM17.7419 8.87097H23.3871V22.5806H17.7419V8.87097ZM16.129 22.5806V19.7581C16.129 19.535 15.9489 19.3548 15.7258 19.3548H14.1129C13.8898 19.3548 13.7097 19.535 13.7097 19.7581V22.5806H11.2903V19.7581C11.2903 19.535 11.1102 19.3548 10.8871 19.3548H9.27419C9.05112 19.3548 8.87097 19.535 8.87097 19.7581V22.5806H8.06452V16.129H16.9355V22.5806H16.129ZM15.3226 22.5806H14.5161V20.1613H15.3226V22.5806ZM10.4839 22.5806H9.67742V20.1613H10.4839V22.5806ZM16.9355 15.3226H8.06452V13.7097H16.9355V15.3226ZM14.9725 4.03226L14.5839 4.61485C14.4935 4.75031 14.4935 4.92652 14.5839 5.06218L14.9725 5.64516H12.9032V4.03226H14.9725ZM12.5 8.95248L16.9355 11.9093V12.9032H8.06452V11.9093L12.5 8.95248ZM6.45161 8.06452H5.64516V4.83871H6.45161V8.06452ZM4.03226 5.64516H4.83871V8.06452H4.03226V5.64516ZM4.43548 1.48867L5.4528 4.03226H5.24194C5.01886 4.03226 4.83871 4.21241 4.83871 4.43548V4.83871H4.03226V4.43548C4.03226 4.21241 3.85211 4.03226 3.62903 4.03226H3.41817L4.43548 1.48867ZM2.41935 4.83871H3.22581V8.06452H2.41935V4.83871ZM1.6129 8.87097H7.25806V22.5806H1.6129V8.87097ZM24.1935 24.1935H0.806452V23.3871H24.1935V24.1935Z" fill="black"/>
<path d="M2.82119 12.0971H4.4341C4.65717 12.0971 4.83732 11.9169 4.83732 11.6939V10.081C4.83732 9.85789 4.65717 9.67773 4.4341 9.67773H2.82119C2.59812 9.67773 2.41797 9.85789 2.41797 10.081V11.6939C2.41797 11.9169 2.59812 12.0971 2.82119 12.0971ZM3.22442 10.4842H4.03087V11.2906H3.22442V10.4842Z" fill="black"/>
<path d="M6.04738 12.9043H4.43448C4.2114 12.9043 4.03125 13.0844 4.03125 13.3075V14.9204C4.03125 15.1435 4.2114 15.3237 4.43448 15.3237H6.04738C6.27045 15.3237 6.4506 15.1435 6.4506 14.9204V13.3075C6.4506 13.0844 6.27045 12.9043 6.04738 12.9043ZM5.64415 14.5172H4.8377V13.7107H5.64415V14.5172Z" fill="black"/>
<path d="M5.64453 9.67773H6.45098V12.0971H5.64453V9.67773Z" fill="black"/>
<path d="M2.41797 12.9043H3.22442V15.3237H2.41797V12.9043Z" fill="black"/>
<path d="M2.82119 18.5483H4.4341C4.65717 18.5483 4.83732 18.3681 4.83732 18.145V16.5321C4.83732 16.3091 4.65717 16.1289 4.4341 16.1289H2.82119C2.59812 16.1289 2.41797 16.3091 2.41797 16.5321V18.145C2.41797 18.3681 2.59812 18.5483 2.82119 18.5483ZM3.22442 16.9354H4.03087V17.7418H3.22442V16.9354Z" fill="black"/>
<path d="M6.04738 19.3555H4.43448C4.2114 19.3555 4.03125 19.5356 4.03125 19.7587V21.3716C4.03125 21.5947 4.2114 21.7748 4.43448 21.7748H6.04738C6.27045 21.7748 6.4506 21.5947 6.4506 21.3716V19.7587C6.4506 19.5356 6.27045 19.3555 6.04738 19.3555ZM5.64415 20.9684H4.8377V20.1619H5.64415V20.9684Z" fill="black"/>
<path d="M5.64453 16.1289H6.45098V18.5483H5.64453V16.1289Z" fill="black"/>
<path d="M2.41797 19.3555H3.22442V21.7748H2.41797V19.3555Z" fill="black"/>
<path d="M18.954 12.0971H20.5669C20.79 12.0971 20.9701 11.9169 20.9701 11.6939V10.081C20.9701 9.85789 20.79 9.67773 20.5669 9.67773H18.954C18.7309 9.67773 18.5508 9.85789 18.5508 10.081V11.6939C18.5508 11.9169 18.7309 12.0971 18.954 12.0971ZM19.3572 10.4842H20.1637V11.2906H19.3572V10.4842Z" fill="black"/>
<path d="M22.1763 12.9043H20.5634C20.3403 12.9043 20.1602 13.0844 20.1602 13.3075V14.9204C20.1602 15.1435 20.3403 15.3237 20.5634 15.3237H22.1763C22.3994 15.3237 22.5795 15.1435 22.5795 14.9204V13.3075C22.5795 13.0844 22.3994 12.9043 22.1763 12.9043ZM21.7731 14.5172H20.9666V13.7107H21.7731V14.5172Z" fill="black"/>
<path d="M21.7734 9.67773H22.5799V12.0971H21.7734V9.67773Z" fill="black"/>
<path d="M18.5508 12.9043H19.3572V15.3237H18.5508V12.9043Z" fill="black"/>
<path d="M18.954 18.5483H20.5669C20.79 18.5483 20.9701 18.3681 20.9701 18.145V16.5321C20.9701 16.3091 20.79 16.1289 20.5669 16.1289H18.954C18.7309 16.1289 18.5508 16.3091 18.5508 16.5321V18.145C18.5508 18.3681 18.7309 18.5483 18.954 18.5483ZM19.3572 16.9354H20.1637V17.7418H19.3572V16.9354Z" fill="black"/>
<path d="M22.1763 19.3555H20.5634C20.3403 19.3555 20.1602 19.5356 20.1602 19.7587V21.3716C20.1602 21.5947 20.3403 21.7748 20.5634 21.7748H22.1763C22.3994 21.7748 22.5795 21.5947 22.5795 21.3716V19.7587C22.5795 19.5356 22.3994 19.3555 22.1763 19.3555ZM21.7731 20.9684H20.9666V20.1619H21.7731V20.9684Z" fill="black"/>
<path d="M21.7734 16.1289H22.5799V18.5483H21.7734V16.1289Z" fill="black"/>
<path d="M18.5508 19.3555H19.3572V21.7748H18.5508V19.3555Z" fill="black"/>
<path d="M12.4987 12.0971C13.1656 12.0971 13.7084 11.5543 13.7084 10.8874C13.7084 10.2206 13.1656 9.67773 12.4987 9.67773C11.8319 9.67773 11.2891 10.2206 11.2891 10.8874C11.2891 11.5543 11.8319 12.0971 12.4987 12.0971ZM12.4987 10.4842C12.7212 10.4842 12.902 10.6649 12.902 10.8874C12.902 11.1099 12.7212 11.2906 12.4987 11.2906C12.2763 11.2906 12.0955 11.1099 12.0955 10.8874C12.0955 10.6649 12.2763 10.4842 12.4987 10.4842Z" fill="black"/>
<path d="M8.87109 16.9355H9.67755V18.5484H8.87109V16.9355Z" fill="black"/>
<path d="M10.4844 16.9355H11.2908V18.5484H10.4844V16.9355Z" fill="black"/>
<path d="M13.7109 16.9355H14.5174V18.5484H13.7109V16.9355Z" fill="black"/>
<path d="M15.3242 16.9355H16.1307V18.5484H15.3242V16.9355Z" fill="black"/>
<path d="M12.0977 16.9355H12.9041V18.5484H12.0977V16.9355Z" fill="black"/>
</svg>
